# xmcd CD database file
#
# Track frame offsets:
#	150
#	18135
#	34825
#	57877
#	108537
#	126292
#	141700
#	158867
#	170842
#	190527
#	204160
#	227665
#	248062
#	261542
#	282657
#	295792
#
# Disc length: 4341 seconds
#
# Revision: 0
# Processed by: cddbd v1.5.1PL0 Copyright (c) Steve Scherf et al.
# Submitted via: CDex 1.51
#
DISCID=f110f310
DTITLE=Franck Avitabile - Just Play
DYEAR=2005
DGENRE=Jazz
TTITLE0=Resonance
TTITLE1=Lettre A Loise
TTITLE2=My Romance
TTITLE3=August In Paris
TTITLE4=Memories
TTITLE5=Magic Mirror
TTITLE6=Smile
TTITLE7=Moody Piano
TTITLE8=Morning Star
TTITLE9=Dreamland
TTITLE10=Isopod
TTITLE11=Real Addict
TTITLE12=Corps and Ames
TTITLE13=Nature Boy
TTITLE14=Poinciane
TTITLE15=Medley
EXTD=YEAR: 2005
EXTT0=
EXTT1=
EXTT2=
EXTT3=
EXTT4=
EXTT5=
EXTT6=
EXTT7=
EXTT8=
EXTT9=
EXTT10=
EXTT11=
EXTT12=
EXTT13=
EXTT14=
EXTT15=
PLAYORDER=
